<svg id="Flat" height="512" viewBox="0 0 512 512" width="512" xmlns="http://www.w3.org/2000/svg"><g><g><path d="m64 488v-107.478a30 30 0 0 1 19.127-27.96l124.873-48.562h96l124.873 48.562a30 30 0 0 1 19.127 27.96v107.478z" fill="#fa5d3f"/><path d="m224 488-16-144 48 32 48-32-16 144z" fill="#4d4d4d"/><path d="m256 376 48-32 8-32-56 32-56-32 8 32z" fill="#f2f2f2"/><path d="m312 312-56 32-56-32 16-64h80z" fill="#ffd4cf"/><path d="m285.954 287.913 14.563-21.844-4.517-18.069h-80l-4.517 18.069 14.563 21.844a36 36 0 0 0 59.908 0z" fill="#fbb8b0"/><path d="m350 136h-22v-52a60.5 60.5 0 0 0 -.529-8h-142.942a60.5 60.5 0 0 0 -.529 8v52h-22a10 10 0 0 0 -10 10v28a10 10 0 0 0 10 10h22v31.159a20 20 0 0 0 7.048 15.24l43.352 36.841a20 20 0 0 0 12.951 4.76h17.249a20 20 0 0 0 13.015-4.815l43.4-37.2a20 20 0 0 0 6.985-15.185v-30.8h22a10 10 0 0 0 10-10v-28a10 10 0 0 0 -10-10z" fill="#ffd4cf"/><g fill="#ae7069"><path d="m280 144h16v24h-16z"/><path d="m232 168h-16v-24h8 8z"/><path d="m224 200h64a0 0 0 0 1 0 0 24 24 0 0 1 -24 24h-16a24 24 0 0 1 -24-24 0 0 0 0 1 0 0z"/></g><path d="m328 103.273v-19.273a60 60 0 0 0 -60-60h-24a60 60 0 0 0 -60 60v19.273l72 24.727z" fill="#4d4d4d"/></g><path d="m256 240-32 16 15.359 23.038a20 20 0 0 0 33.282 0l15.359-23.038z" fill="#4d4d4d"/><g fill="#d63924"><path d="m200 304-64 72 40 16-8 40 40 56h16l-16-144-5.986-40.056z"/><path d="m312 304 64 72-40 16 8 40-40 56h-16l14.783-144 7.217-40z"/><path d="m120 424h16v64h-16z"/><path d="m376 424h16v64h-16z"/></g></g></svg>