<svg id="Capa_1" enable-background="new 0 0 512 512" height="512" viewBox="0 0 512 512" width="512" xmlns="http://www.w3.org/2000/svg"><g><path d="m41.558 395.877c-26.28-40.208-41.558-88.258-41.558-139.877 0-141.234 114.371-255.756 255.548-256 140.15-.242 255.109 113.369 256.44 253.513.013 1.378.015 2.753.007 4.125-.632 100.921-83.639 181.971-184.563 181.971h-204.877c-32.642 0-63.138-16.409-80.997-43.732z" fill="#7cd2e3"/><path d="m330 185c0 80.081-64.919 145-145 145s-145-64.919-145-145 64.919-145 145-145 145 64.919 145 145z" fill="#a6e0ec"/><path d="m210.993 173.725c-11.371 24.205-36.17 40.852-64.799 40.342-37.525-.668-68.184-31.327-68.852-68.852-.482-27.078 14.383-50.729 36.475-62.834 1.257-.689 2.71.595 2.181 1.927-3.404 8.563-5.17 17.956-4.911 27.791.976 37.036 31.194 67.25 68.23 68.223 11.346.298 22.102-2.099 31.676-6.597z" fill="#ffc14f"/><path d="m217.615 143.937c0 12.402-3.219 24.053-8.867 34.161-10.109 5.648-21.759 8.867-34.162 8.867-38.739 0-70.142-31.404-70.142-70.142 0-12.403 3.219-24.053 8.867-34.162 10.109-5.648 21.759-8.867 34.162-8.867 38.738 0 70.142 31.404 70.142 70.143z" fill="#fff36c"/><path d="m441.262 180c0 8.284-6.716 15-15 15h-12.525c-8.284 0-15 6.716-15 15 0 8.284-6.716 15-15 15h-45.986c-8.284 0-15-6.716-15-15 0-8.284 6.716-15 15-15h5.986c8.284 0 15-6.716 15-15s6.716-15 15-15h52.525c8.284 0 15 6.716 15 15zm-360.636-46.866h-30c-8.284 0-15 6.716-15 15 0 8.284 6.716 15 15 15h30c8.284 0 15-6.716 15-15 0-8.284-6.716-15-15-15zm250.374-24.63h-30c-8.284 0-15 6.716-15 15 0 8.284 6.716 15 15 15h30c8.284 0 15-6.716 15-15 0-8.284-6.716-15-15-15zm-72.5-80.464h-30c-8.284 0-15 6.716-15 15 0 8.284 6.716 15 15 15h30c8.284 0 15-6.716 15-15 0-8.284-6.716-15-15-15zm-172.5 316.147c8.284 0 15-6.716 15-15 0-8.284-6.716-15-15-15h-30c-8.284 0-15 6.716-15 15 0 8.284 6.716 15 15 15zm115.579-119.591c-8.284 0-15-6.716-15-15s-6.716-15-15-15h-10c-8.284 0-15 6.716-15 15 0 8.284-6.716 15-15 15-8.284 0-15 6.716-15 15 0 8.284 6.716 15 15 15h70c8.284 0 15-6.716 15-15 0-8.285-6.716-15-15-15z" fill="#c2eaf2"/><path d="m90 375v55.769c0 7.824-9.473 11.796-15.005 6.264-13.179-13.177-24.929-27.784-34.995-43.569v-18.464c0-2.761 2.239-5 5-5h40c2.761 0 5 2.239 5 5zm395-145h-40c-2.761 0-5 2.239-5 5v71.255c0 2.761 2.239 5 5 5h40c2.761 0 5-2.239 5-5v-71.255c0-2.761-2.239-5-5-5zm-320 190h-40c-2.761 0-5 2.239-5 5v47.927c15.613 9.81 32.36 17.979 50 24.27v-72.197c0-2.761-2.239-5-5-5z" fill="#6a61b4"/><path d="m261 90v190c0 2.761-2.239 5-5 5s-5-2.239-5-5v-190c0-2.761 2.239-5 5-5s5 2.239 5 5z" fill="#453d83"/><path d="m336 190v293.626c-25.169 8.273-52.062 12.749-80 12.749s-54.83-4.476-80-12.749v-293.626h24c-5.523 0-10-4.477-10-10v-8c0-5.523 4.477-10 10-10h112c5.523 0 10 4.477 10 10v8c0 5.523-4.477 10-10 10z" fill="#5f55af"/><path d="m176 190h24v180h-24zm41.615-10v-8c0-5.523 4.477-10 10-10h-27.615c-5.523 0-10 4.477-10 10v8c0 5.523 4.477 10 10 10h27.615c-5.523 0-10-4.477-10-10z" fill="#51489a"/><path d="m290.213 229.596h-93.394c-2.761 0-5-2.239-5-5 0-2.761 2.239-5 5-5h93.394c2.761 0 5 2.239 5 5 0 2.761-2.239 5-5 5zm29.968 22.443c0-2.761-2.239-5-5-5h-26.681c-2.761 0-5 2.239-5 5 0 2.761 2.239 5 5 5h26.681c2.762 0 5-2.238 5-5zm-40.968 27.444c0-2.761-2.239-5-5-5h-33.803c-2.761 0-5 2.239-5 5 0 2.761 2.239 5 5 5h33.803c2.761 0 5-2.239 5-5zm12.936 54.37c0-2.761-2.239-5-5-5h-15.872c-2.761 0-5 2.239-5 5 0 2.761 2.239 5 5 5h15.872c2.761 0 5-2.239 5-5zm-12.442 26.147c0-2.761-2.239-5-5-5h-34.298c-2.761 0-5 2.239-5 5 0 2.761 2.239 5 5 5h34.298c2.762 0 5-2.239 5-5zm-22.149 27.832c0-2.761-2.239-5-5-5h-12.149c-2.761 0-5 2.239-5 5 0 2.761 2.239 5 5 5h12.149c2.762 0 5-2.239 5-5z" fill="#51489a"/><path d="m220 185v10c0 2.761-2.239 5-5 5h-44c-2.761 0-5-2.239-5-5v-10c0-2.761 2.239-5 5-5h44c2.761 0 5 2.239 5 5z" fill="#8078bf"/><path d="m346 185v10c0 2.761-2.239 5-5 5h-141.042c-2.761 0-5-2.239-5-5v-10c0-2.761 2.239-5 5-5h141.042c2.761 0 5 2.239 5 5z" fill="#958fca"/><path d="m364.319 295v60c0 2.761-2.239 5-5 5h-34.319c-2.761 0-5-2.239-5-5v-60c0-2.761 2.239-5 5-5h34.319c2.762 0 5 2.239 5 5z" fill="#8078bf"/><path d="m425 295v60c0 2.761-2.239 5-5 5h-70c-2.761 0-5-2.239-5-5v-60c0-2.761 2.239-5 5-5h70c2.761 0 5 2.239 5 5z" fill="#958fca"/><path d="m114.933 267.333c-1.182 7.501-1.81 15.353-1.81 23.44v163.189c0 6.151-7.048 9.657-11.944 5.933-9.239-7.025-17.985-14.665-26.179-22.856v-115.039c0-25.503 15.912-47.29 38.349-55.975.851-.329 1.726.407 1.584 1.308zm100.067 32.667h-22c-2.761 0-5 2.239-5 5v15h-23c-2.761 0-5 2.239-5 5v168.392c16.261 6.582 33.352 11.542 51.073 14.679 4.652.824 8.927-2.741 8.927-7.465v-195.606c0-2.761-2.239-5-5-5z" fill="#8078bf"/><path d="m506.694 270h-22c-2.761 0-5-2.239-5-5v-90c0-2.761 2.239-5 5-5h22c2.761 0 5 2.239 5 5v90c0 2.761-2.239 5-5 5zm-361.694 216.749v-214.749c0-5.523-4.477-10-10-10-7.678 0-15.02 1.442-21.768 4.071-7.616 11.048-12.135 24.814-12.135 39.74v154.022c13.628 10.373 28.327 19.41 43.903 26.916zm41.447-166.749h33.553v105.073c0 12.286-11.442 21.476-23.396 18.636-.201-.048-.402-.096-.603-.144-8.559-2.055-14.555-9.769-14.555-18.571v-99.994c.001-2.761 2.239-5 5.001-5z" fill="#958fca"/><path d="m90.986 223.796c-19.382-11.54-44.449-5.183-55.989 14.198-2.331 3.916-3.932 8.063-4.843 12.285 2.812 3.277 6.196 6.161 10.112 8.492 19.382 11.54 44.449 5.183 55.989-14.198 2.332-3.916 3.932-8.063 4.843-12.285-2.813-3.277-6.197-6.161-10.112-8.492z" fill="#f76937"/><path d="m25.787 260.541c12.677-9.304 35.777-17.191 51.496-17.583 2.76-.069 4.942-2.363 4.873-5.123-.067-2.718-2.292-4.875-4.996-4.875-.042 0-.084 0-.127.001-17.743.442-42.853 9.016-57.162 19.519-2.227 1.634-2.707 4.763-1.073 6.989.98 1.335 2.497 2.042 4.035 2.042 1.027 0 2.063-.315 2.954-.97z" fill="#954c35"/><path d="m169.575 481.753c1.12 4.417 1.474 8.849 1.145 13.155-3.629 2.341-7.694 4.142-12.111 5.262-21.865 5.545-44.085-7.685-49.63-29.55-1.12-4.417-1.474-8.849-1.145-13.155 3.629-2.341 7.694-4.142 12.111-5.262 21.865-5.546 44.085 7.685 49.63 29.55zm241.086-431.17c-19.382-11.54-44.449-5.183-55.989 14.198-2.332 3.916-3.933 8.063-4.843 12.285 2.813 3.277 6.196 6.161 10.112 8.492 19.382 11.54 44.449 5.183 55.989-14.198 2.331-3.916 3.932-8.063 4.843-12.285-2.812-3.277-6.196-6.16-10.112-8.492z" fill="#ffa90b"/><path d="m180.311 500.681c-.252 0-.507-.019-.765-.058-17.545-2.692-41.362-14.384-54.222-26.618-2.001-1.903-2.08-5.068-.177-7.069 1.905-2 5.068-2.08 7.069-.176 11.392 10.837 33.304 21.594 48.847 23.979 2.729.419 4.603 2.971 4.184 5.701-.379 2.472-2.509 4.241-4.936 4.241zm193.583-424.287c17.744-.442 42.853-9.016 57.162-19.519 2.226-1.634 2.706-4.763 1.071-6.989-1.634-2.227-4.764-2.706-6.989-1.072-12.675 9.304-35.775 17.191-51.494 17.583-2.76.069-4.942 2.363-4.873 5.123.067 2.718 2.292 4.875 4.996 4.875.043.001.085 0 .127-.001z" fill="#f76937"/><path d="m462.006 125v240c0 2.761-2.239 5-5 5h-59.942c-2.761 0-5-2.239-5-5v-240c0-2.761 2.239-5 5-5h59.942c2.762 0 5 2.239 5 5z" fill="#8078bf"/><path d="m409.219 370h-22.213c-2.761 0-5-2.239-5-5v-240c0-2.761 2.239-5 5-5h22.213c-2.761 0-5 2.239-5 5v240c0 2.761 2.239 5 5 5z" fill="#6a61b4"/><path d="m443.936 257.039h-46.872c-2.761 0-5-2.239-5-5 0-2.761 2.239-5 5-5h46.872c2.761 0 5 2.239 5 5 0 2.762-2.239 5-5 5zm-12.893-32.443c0-2.761-2.239-5-5-5h-28.979c-2.761 0-5 2.239-5 5 0 2.761 2.239 5 5 5h28.979c2.761 0 5-2.239 5-5zm21.787-28.231c0-2.761-2.239-5-5-5h-28.979c-2.761 0-5 2.239-5 5 0 2.761 2.239 5 5 5h28.979c2.761 0 5-2.239 5-5zm0-28.231c0-2.761-2.239-5-5-5h-14.17c-2.761 0-5 2.239-5 5 0 2.761 2.239 5 5 5h14.17c2.761 0 5-2.239 5-5z" fill="#6a61b4"/><path d="m506.968 256c0 102.669-64.816 181.814-152.056 222.612-3.926 1.836 1.502 12.984-2.529 14.624-29.75 12.099-62.288 18.764-96.383 18.764-15.498 0-30.675-1.377-45.414-4.016-.386-3.107-.586-6.272-.586-9.484 0-37.007 26.451-67.837 61.479-74.614-.007-.461-.011-.923-.011-1.386 0-47.22 38.28-85.5 85.5-85.5 9.924 0 19.453 1.691 28.315 4.8 14.124-26.17 41.794-43.952 73.618-43.952 3.18 0 6.318.178 9.405.523 5.365-21.688 17.161-38.856 38.653-44.708.005.779.009 1.557.009 2.337z" fill="#f44545"/><path d="m512 256c0 107.29-66.001 199.164-159.617 237.236-19.364-11.256-32.383-32.225-32.383-56.236 0-35.898 29.102-65 65-65 9.93 0 19.34 2.227 27.758 6.208 7.155-23.731 27.51-41.739 52.53-45.487-3.403-7.888-5.288-16.584-5.288-25.721 0-31.338 22.177-57.496 51.693-63.636.204 4.186.307 8.399.307 12.636z" fill="#f76937"/><path d="m193.158 42.892c-1.953 1.953-5.118 1.953-7.071 0l-8.255-8.255c-1.953-1.953-1.953-5.118 0-7.071 1.953-1.953 5.118-1.953 7.071 0l8.255 8.255c1.953 1.953 1.953 5.119 0 7.071zm188.279 116.096-8.255 8.255c-1.953 1.953-1.953 5.118 0 7.071 1.953 1.953 5.118 1.953 7.071 0l8.255-8.255c1.953-1.953 1.953-5.118 0-7.071-1.952-1.952-5.118-1.952-7.071 0z" fill="#f76937"/><path d="m302.499 64.007c0-2.761 2.239-5 5-5h11.674c2.761 0 5 2.239 5 5 0 2.761-2.239 5-5 5h-11.674c-2.761 0-5-2.238-5-5zm-253.836 136.585-8.255-8.255c-1.953-1.953-5.118-1.953-7.071 0-1.953 1.953-1.953 5.118 0 7.071l8.255 8.255c1.953 1.953 5.118 1.953 7.071 0 1.953-1.953 1.953-5.118 0-7.071z" fill="#fff36c"/></g></svg>